{
    "asset" : {
        "generator" : "Khronos glTF Blender I/O v1.7.33",
        "version" : "2.0"
    },
    "scene" : 0,
    "scenes" : [
        {
            "name" : "Scene",
            "nodes" : [
                0,
                1,
                2,
                3,
                4,
                5
            ]
        }
    ],
    "nodes" : [
        {
            "mesh" : 0,
            "name" : "Cube",
            "scale" : [
                1,
                0.8535584211349487,
                1
            ],
            "translation" : [
                0,
                -0.13008128106594086,
                0
            ]
        },
        {
            "mesh" : 1,
            "name" : "Cilindro",
            "scale" : [
                0.3034134805202484,
                0.3847115933895111,
                0.3034134805202484
            ],
            "translation" : [
                -0.4454033076763153,
                -0.8929452896118164,
                0.02942270040512085
            ]
        },
        {
            "mesh" : 2,
            "name" : "Cubo",
            "scale" : [
                -0.29936936497688293,
                -0.29936936497688293,
                -0.29936936497688293
            ],
            "translation" : [
                0,
                0.9544717073440552,
                -0.7872341871261597
            ]
        },
        {
            "mesh" : 3,
            "name" : "Cubo.001",
            "scale" : [
                0.7570226788520813,
                0.7570226788520813,
                0.7570226788520813
            ],
            "translation" : [
                0,
                0.5784208178520203,
                1.4038623571395874
            ]
        },
        {
            "mesh" : 4,
            "name" : "C\u00edrculo",
            "rotation" : [
                0.2741880714893341,
                -0.6435911059379578,
                0.2101164013147354,
                0.6829805970191956
            ],
            "scale" : [
                0.37505608797073364,
                0.37505602836608887,
                0.3750559985637665
            ],
            "translation" : [
                0.5870204567909241,
                2.4908242225646973,
                0.012966513633728027
            ]
        },
        {
            "mesh" : 5,
            "name" : "C\u00edrculo.001",
            "rotation" : [
                0.10579268634319305,
                0.6687379479408264,
                -0.31501099467277527,
                0.6651056408882141
            ],
            "scale" : [
                0.28613096475601196,
                0.28613096475601196,
                0.28613096475601196
            ],
            "translation" : [
                -0.3875742554664612,
                2.344723701477051,
                -0.01911982148885727
            ]
        }
    ],
    "materials" : [
        {
            "doubleSided" : true,
            "name" : "Material",
            "pbrMetallicRoughness" : {
                "baseColorFactor" : [
                    0.021169917657971382,
                    0.0027405922301113605,
                    0.21926181018352509,
                    1
                ],
                "metallicFactor" : 0,
                "roughnessFactor" : 0.6654545068740845
            }
        },
        {
            "doubleSided" : true,
            "name" : "Material.001",
            "pbrMetallicRoughness" : {
                "baseColorFactor" : [
                    0.18587999045848846,
                    0.7533850073814392,
                    0.6745127439498901,
                    1
                ],
                "metallicFactor" : 0,
                "roughnessFactor" : 0
            }
        },
        {
            "doubleSided" : true,
            "name" : "Material.002",
            "pbrMetallicRoughness" : {
                "baseColorFactor" : [
                    0.06561937183141708,
                    0.5511009097099304,
                    0.038725752383470535,
                    1
                ],
                "metallicFactor" : 0,
                "roughnessFactor" : 0
            }
        }
    ],
    "meshes" : [
        {
            "name" : "Cube",
            "primitives" : [
                {
                    "attributes" : {
                        "POSITION" : 0,
                        "NORMAL" : 1,
                        "TEXCOORD_0" : 2
                    },
                    "indices" : 3,
                    "material" : 0
                }
            ]
        },
        {
            "name" : "Cilindro",
            "primitives" : [
                {
                    "attributes" : {
                        "POSITION" : 4,
                        "NORMAL" : 5,
                        "TEXCOORD_0" : 6
                    },
                    "indices" : 7,
                    "material" : 0
                }
            ]
        },
        {
            "name" : "Cubo.001",
            "primitives" : [
                {
                    "attributes" : {
                        "POSITION" : 8,
                        "NORMAL" : 9,
                        "TEXCOORD_0" : 10
                    },
                    "indices" : 11,
                    "material" : 1
                }
            ]
        },
        {
            "name" : "Cubo.002",
            "primitives" : [
                {
                    "attributes" : {
                        "POSITION" : 12,
                        "NORMAL" : 13,
                        "TEXCOORD_0" : 14
                    },
                    "indices" : 15,
                    "material" : 0
                }
            ]
        },
        {
            "name" : "C\u00edrculo",
            "primitives" : [
                {
                    "attributes" : {
                        "POSITION" : 16,
                        "NORMAL" : 17,
                        "TEXCOORD_0" : 18
                    },
                    "indices" : 19,
                    "material" : 2
                }
            ]
        },
        {
            "name" : "C\u00edrculo.001",
            "primitives" : [
                {
                    "attributes" : {
                        "POSITION" : 20,
                        "NORMAL" : 21,
                        "TEXCOORD_0" : 22
                    },
                    "indices" : 23,
                    "material" : 2
                }
            ]
        }
    ],
    "accessors" : [
        {
            "bufferView" : 0,
            "componentType" : 5126,
            "count" : 24,
            "max" : [
                1,
                2.6573851108551025,
                1
            ],
            "min" : [
                -1,
                -1,
                -1
            ],
            "type" : "VEC3"
        },
        {
            "bufferView" : 1,
            "componentType" : 5126,
            "count" : 24,
            "type" : "VEC3"
        },
        {
            "bufferView" : 2,
            "componentType" : 5126,
            "count" : 24,
            "type" : "VEC2"
        },
        {
            "bufferView" : 3,
            "componentType" : 5123,
            "count" : 84,
            "type" : "SCALAR"
        },
        {
            "bufferView" : 4,
            "componentType" : 5126,
            "count" : 165,
            "max" : [
                1,
                1,
                1
            ],
            "min" : [
                -1,
                -1.000000238418579,
                -1
            ],
            "type" : "VEC3"
        },
        {
            "bufferView" : 5,
            "componentType" : 5126,
            "count" : 165,
            "type" : "VEC3"
        },
        {
            "bufferView" : 6,
            "componentType" : 5126,
            "count" : 165,
            "type" : "VEC2"
        },
        {
            "bufferView" : 7,
            "componentType" : 5123,
            "count" : 768,
            "type" : "SCALAR"
        },
        {
            "bufferView" : 8,
            "componentType" : 5126,
            "count" : 35,
            "max" : [
                1.9769957065582275,
                0.7041542530059814,
                0.7041544318199158
            ],
            "min" : [
                -2.135369062423706,
                -1.4875452518463135,
                -0.7041541934013367
            ],
            "type" : "VEC3"
        },
        {
            "bufferView" : 9,
            "componentType" : 5126,
            "count" : 35,
            "type" : "VEC3"
        },
        {
            "bufferView" : 10,
            "componentType" : 5126,
            "count" : 35,
            "type" : "VEC2"
        },
        {
            "bufferView" : 11,
            "componentType" : 5123,
            "count" : 132,
            "type" : "SCALAR"
        },
        {
            "bufferView" : 12,
            "componentType" : 5126,
            "count" : 63,
            "max" : [
                0.8687566518783569,
                1,
                -0.15210963785648346
            ],
            "min" : [
                -0.8897569179534912,
                -1,
                -1
            ],
            "type" : "VEC3"
        },
        {
            "bufferView" : 13,
            "componentType" : 5126,
            "count" : 63,
            "type" : "VEC3"
        },
        {
            "bufferView" : 14,
            "componentType" : 5126,
            "count" : 63,
            "type" : "VEC2"
        },
        {
            "bufferView" : 15,
            "componentType" : 5123,
            "count" : 240,
            "type" : "SCALAR"
        },
        {
            "bufferView" : 16,
            "componentType" : 5126,
            "count" : 308,
            "max" : [
                0.8243646621704102,
                0.11340408772230148,
                2.7944979667663574
            ],
            "min" : [
                -0.8924713730812073,
                -0.2792420983314514,
                -1.6256099939346313
            ],
            "type" : "VEC3"
        },
        {
            "bufferView" : 17,
            "componentType" : 5126,
            "count" : 308,
            "type" : "VEC3"
        },
        {
            "bufferView" : 18,
            "componentType" : 5126,
            "count" : 308,
            "type" : "VEC2"
        },
        {
            "bufferView" : 19,
            "componentType" : 5123,
            "count" : 468,
            "type" : "SCALAR"
        },
        {
            "bufferView" : 20,
            "componentType" : 5126,
            "count" : 296,
            "max" : [
                0.9178696870803833,
                0.11202219128608704,
                2.730240821838379
            ],
            "min" : [
                -0.9178696870803833,
                -0.37955015897750854,
                -1.7808873653411865
            ],
            "type" : "VEC3"
        },
        {
            "bufferView" : 21,
            "componentType" : 5126,
            "count" : 296,
            "type" : "VEC3"
        },
        {
            "bufferView" : 22,
            "componentType" : 5126,
            "count" : 296,
            "type" : "VEC2"
        },
        {
            "bufferView" : 23,
            "componentType" : 5123,
            "count" : 468,
            "type" : "SCALAR"
        }
    ],
    "bufferViews" : [
        {
            "buffer" : 0,
            "byteLength" : 288,
            "byteOffset" : 0
        },
        {
            "buffer" : 0,
            "byteLength" : 288,
            "byteOffset" : 288
        },
        {
            "buffer" : 0,
            "byteLength" : 192,
            "byteOffset" : 576
        },
        {
            "buffer" : 0,
            "byteLength" : 168,
            "byteOffset" : 768
        },
        {
            "buffer" : 0,
            "byteLength" : 1980,
            "byteOffset" : 936
        },
        {
            "buffer" : 0,
            "byteLength" : 1980,
            "byteOffset" : 2916
        },
        {
            "buffer" : 0,
            "byteLength" : 1320,
            "byteOffset" : 4896
        },
        {
            "buffer" : 0,
            "byteLength" : 1536,
            "byteOffset" : 6216
        },
        {
            "buffer" : 0,
            "byteLength" : 420,
            "byteOffset" : 7752
        },
        {
            "buffer" : 0,
            "byteLength" : 420,
            "byteOffset" : 8172
        },
        {
            "buffer" : 0,
            "byteLength" : 280,
            "byteOffset" : 8592
        },
        {
            "buffer" : 0,
            "byteLength" : 264,
            "byteOffset" : 8872
        },
        {
            "buffer" : 0,
            "byteLength" : 756,
            "byteOffset" : 9136
        },
        {
            "buffer" : 0,
            "byteLength" : 756,
            "byteOffset" : 9892
        },
        {
            "buffer" : 0,
            "byteLength" : 504,
            "byteOffset" : 10648
        },
        {
            "buffer" : 0,
            "byteLength" : 480,
            "byteOffset" : 11152
        },
        {
            "buffer" : 0,
            "byteLength" : 3696,
            "byteOffset" : 11632
        },
        {
            "buffer" : 0,
            "byteLength" : 3696,
            "byteOffset" : 15328
        },
        {
            "buffer" : 0,
            "byteLength" : 2464,
            "byteOffset" : 19024
        },
        {
            "buffer" : 0,
            "byteLength" : 936,
            "byteOffset" : 21488
        },
        {
            "buffer" : 0,
            "byteLength" : 3552,
            "byteOffset" : 22424
        },
        {
            "buffer" : 0,
            "byteLength" : 3552,
            "byteOffset" : 25976
        },
        {
            "buffer" : 0,
            "byteLength" : 2368,
            "byteOffset" : 29528
        },
        {
            "buffer" : 0,
            "byteLength" : 936,
            "byteOffset" : 31896
        }
    ],
    "buffers" : [
        {
            "byteLength" : 32832,
            "uri" : "data:application/octet-stream;base64,"
        }
    ]
}
